<?xml version="1.0" encoding="UTF-8" standalone="no"?>
<!DOCTYPE svg PUBLIC "-//W3C//DTD SVG 1.1//EN" "http://www.w3.org/Graphics/SVG/1.1/DTD/svg11.dtd">
<svg width="100%" height="100%" viewBox="0 0 282 318" version="1.1" xmlns="http://www.w3.org/2000/svg" xmlns:xlink="http://www.w3.org/1999/xlink" xml:space="preserve" xmlns:serif="http://www.serif.com/" style="fill-rule:evenodd;clip-rule:evenodd;stroke-linejoin:round;stroke-miterlimit:2;">
    <g transform="matrix(1,0,0,1,-534.283333,-1316.775)">
        <g transform="matrix(4.166667,0,0,4.166667,0,-556.720833)">
            <path d="M181.982,525.864L142.099,525.864L128.228,496.908L146.434,450.093L162.041,449.639L177.648,450.093L195.854,496.908L181.982,525.864ZM162.041,456.354L153.023,456.681L137.071,496.041L148.549,519.275L162.039,514.767L162.039,514.77C162.04,514.769 162.041,514.768 162.043,514.767L175.532,519.275L187.011,496.041L171.059,456.681L162.041,456.354Z"/>
        </g>
        <g transform="matrix(4.166667,0,0,4.166667,0,-551.783333)">
            <path d="M141.44,479.811C141.076,479.329 141.172,478.642 141.654,478.277C142.137,477.913 142.824,478.009 143.188,478.491C147.089,483.657 148.772,484.259 153.231,486.42C158.54,488.993 159.599,492.684 160.324,494.822C160.518,495.394 160.21,496.017 159.638,496.211C159.065,496.405 158.443,496.097 158.249,495.525C157.636,493.716 156.768,490.569 152.275,488.391C147.459,486.057 145.654,485.391 141.44,479.811Z"/>
        </g>
        <g transform="matrix(4.166667,0,0,4.166667,0,-366.6375)">
            <path d="M179.436,471.08C180.031,471.185 180.429,471.754 180.323,472.35C180.218,472.945 179.649,473.342 179.053,473.237C173.682,472.283 173.908,471.638 166.576,468.043C159.275,464.463 156.324,459.347 155.741,458.341C155.437,457.818 155.616,457.147 156.139,456.844C156.662,456.541 157.333,456.719 157.636,457.242C158.168,458.161 160.879,462.81 167.54,466.076C174.542,469.509 174.307,470.169 179.436,471.08Z"/>
        </g>
        <g transform="matrix(4.166667,0,0,4.166667,0,-419.025)">
            <path d="M181.902,474.515C182.492,474.383 183.079,474.754 183.211,475.344C183.344,475.933 182.972,476.52 182.383,476.653C182.239,476.685 177.383,478.623 170.821,475.103C168.809,474.024 167.99,472.676 167.437,471.331C167.014,470.304 166.831,469.261 166.099,468.452C165.684,467.993 165.113,467.95 164.545,467.765C163.593,467.454 162.605,466.998 161.735,465.685C161.401,465.181 161.539,464.501 162.043,464.167C162.548,463.833 163.228,463.971 163.561,464.475C164.2,465.44 164.973,465.606 165.654,465.816C166.433,466.055 167.14,466.337 167.724,466.983C168.476,467.814 168.835,468.807 169.216,469.853C169.636,471.005 170.115,472.238 171.856,473.172C177.558,476.231 181.777,474.543 181.902,474.515Z"/>
        </g>
        <g transform="matrix(4.166667,0,0,4.166667,0,-362.216667)">
            <path d="M156.044,472.808C156.197,473.393 155.847,473.992 155.262,474.145C154.677,474.299 154.078,473.948 153.925,473.364C152.824,469.168 152.853,469.064 153.823,465.464C154.549,462.772 152.826,459.711 150.955,458.05C150.381,457.54 149.794,457.16 149.248,457.005C148.966,456.924 148.702,456.884 148.511,457.051C147.639,457.809 147.873,458.83 148.219,459.746C148.56,460.651 149.064,461.491 149.357,462.108C149.55,462.515 149.664,462.865 149.696,463.124C149.77,463.724 149.342,464.271 148.742,464.344C148.142,464.418 147.595,463.99 147.522,463.39C147.504,463.242 147.379,463.042 147.249,462.787C146.928,462.156 146.487,461.361 146.169,460.519C145.506,458.762 145.402,456.851 147.073,455.398C148.079,454.523 149.6,454.544 151.167,455.488C152.57,456.332 154.045,457.918 155.021,459.804C156.024,461.74 156.493,463.978 155.939,466.034C155.107,469.121 155.1,469.21 156.044,472.808Z"/>
        </g>
        <g transform="matrix(4.166667,0,0,4.166667,0,-513.854167)">
            <path d="M138.984,477.797C138.501,477.433 138.406,476.745 138.77,476.263C139.134,475.781 139.822,475.685 140.304,476.049C143.581,478.525 145.323,478.808 146.683,479.166C147.832,479.468 148.762,479.818 149.913,481.056C151.058,482.285 151.491,483.308 151.933,484.242C152.452,485.336 153.03,486.232 155.559,487.274C156.118,487.505 156.385,488.145 156.154,488.704C155.924,489.263 155.283,489.53 154.724,489.3C151.351,487.909 150.645,486.639 149.954,485.18C149.59,484.411 149.251,483.559 148.31,482.548C147.294,481.457 146.5,481.386 145.368,481.091C143.941,480.72 142.06,480.121 138.984,477.797Z"/>
        </g>
        <g transform="matrix(4.166667,0,0,4.166667,0,-402.879167)">
            <path d="M157.726,462.649C157.49,462.093 157.749,461.449 158.306,461.212C158.862,460.976 159.506,461.236 159.742,461.792C161.449,465.807 165.816,470.061 167.02,470.848C167.903,471.424 168.821,471.992 179.411,475.334C179.988,475.516 180.308,476.131 180.126,476.708C179.944,477.284 179.329,477.605 178.752,477.423C167.684,473.931 166.744,473.284 165.822,472.682C164.486,471.809 159.62,467.104 157.726,462.649Z"/>
        </g>
        <g transform="matrix(4.166667,0,0,4.166667,0,-437.3)">
            <path d="M186.048,470.38C186.418,469.902 187.106,469.813 187.585,470.183C188.063,470.552 188.151,471.241 187.782,471.719C186.969,472.772 186.093,474.775 180.191,477.167C179.839,477.31 178.054,478.026 176.093,477.984C174.66,477.953 173.15,477.527 171.953,476.314C170.936,475.283 170.715,474.383 170.58,473.5C170.457,472.699 170.449,471.921 169.046,470.967C168.546,470.627 168.416,469.946 168.756,469.446C169.095,468.946 169.777,468.816 170.277,469.155C172.183,470.45 172.491,471.56 172.667,472.642C172.775,473.31 172.739,473.992 173.512,474.776C174.475,475.751 175.775,475.869 176.872,475.765C178.111,475.649 179.135,475.232 179.368,475.137C184.548,473.038 185.335,471.304 186.048,470.38Z"/>
        </g>
        <g transform="matrix(4.166667,0,0,4.166667,0,-760.6125)">
            <path d="M155.748,504.955C155.526,504.393 155.802,503.756 156.364,503.534C156.926,503.312 157.563,503.588 157.786,504.15C159.06,507.374 160.651,510.513 163.83,513.102C167.058,515.732 171.895,517.783 179.574,518.871C180.172,518.956 180.589,519.511 180.505,520.109C180.42,520.708 179.865,521.125 179.267,521.04C171.05,519.876 165.9,517.615 162.446,514.801C158.942,511.946 157.154,508.51 155.748,504.955Z"/>
        </g>
        <g transform="matrix(4.166667,0,0,4.166667,0,-750.845833)">
            <path d="M151.866,515.672C151.442,516.103 150.748,516.108 150.317,515.684C149.886,515.26 149.881,514.566 150.305,514.135C153.938,510.443 153.809,510.364 157.27,506.477C157.672,506.025 158.365,505.985 158.817,506.387C159.268,506.789 159.308,507.482 158.906,507.934C155.408,511.862 155.538,511.941 151.866,515.672Z"/>
        </g>
        <g transform="matrix(4.166667,0,0,4.166667,0,-746.795833)">
            <path d="M152.187,514.453C151.703,514.815 151.016,514.717 150.653,514.234C150.29,513.75 150.388,513.063 150.872,512.7C154.769,509.776 154.597,509.608 158.47,506.671C158.951,506.306 159.639,506.4 160.004,506.882C160.37,507.363 160.275,508.051 159.793,508.416C155.916,511.357 156.088,511.525 152.187,514.453Z"/>
        </g>
        <g transform="matrix(4.166667,0,0,4.166667,0,-668.075)">
            <path d="M161.877,492.146C162.199,491.635 162.876,491.481 163.388,491.804C163.899,492.126 164.053,492.803 163.73,493.314C158.501,501.614 158.788,501.809 153.28,510.105C152.945,510.609 152.265,510.747 151.761,510.412C151.258,510.078 151.12,509.397 151.455,508.894C156.948,500.619 156.661,500.424 161.877,492.146Z"/>
        </g>
        <g transform="matrix(4.166667,0,0,4.166667,0,-664.441667)">
            <path d="M153.35,509.157C152.965,509.623 152.274,509.689 151.808,509.304C151.342,508.919 151.276,508.228 151.661,507.762C152.768,506.421 158.213,500.306 163.603,492.302C163.94,491.8 164.622,491.667 165.123,492.005C165.625,492.343 165.758,493.024 165.42,493.525C159.971,501.617 154.47,507.801 153.35,509.157Z"/>
        </g>
        <g transform="matrix(4.166667,0,0,4.166667,0,-599.829167)">
            <path d="M165.636,505.489C165.479,506.073 164.877,506.419 164.293,506.261C163.71,506.103 163.364,505.501 163.522,504.917C165.314,498.293 165.72,498.451 167.914,491.921C168.222,491.006 168.154,490.996 171.312,480.341C171.483,479.761 172.093,479.43 172.673,479.602C173.253,479.773 173.584,480.383 173.412,480.963C170.234,491.688 170.3,491.698 169.991,492.619C167.818,499.086 167.412,498.929 165.636,505.489Z"/>
        </g>
        <g transform="matrix(4.166667,0,0,4.166667,0,-602.8375)">
            <path d="M169.641,480.541C169.785,479.954 170.379,479.594 170.966,479.738C171.553,479.882 171.912,480.476 171.768,481.063C168.716,493.506 167.846,494.929 165.7,505.995C165.585,506.589 165.009,506.977 164.416,506.862C163.822,506.747 163.434,506.171 163.549,505.578C165.704,494.466 166.576,493.036 169.641,480.541Z"/>
        </g>
        <g transform="matrix(4.166667,0,0,4.166667,0,-556.016667)">
            <path d="M173.877,474.688C173.713,474.106 174.053,473.5 174.634,473.336C175.216,473.172 175.822,473.512 175.986,474.094C178.564,483.246 180.663,488.009 181.495,491.424C182.401,495.148 181.967,497.414 179.242,501.521C178.908,502.025 178.228,502.162 177.724,501.828C177.22,501.494 177.083,500.814 177.417,500.31C178.787,498.245 179.509,496.752 179.679,495.203C179.851,493.641 179.467,492.041 178.744,489.787C177.697,486.526 175.94,482.012 173.877,474.688Z"/>
        </g>
        <g transform="matrix(4.166667,0,0,4.166667,0,-476.233333)">
            <path d="M141.382,473.848C141.422,473.245 141.945,472.788 142.548,472.828C143.151,472.868 143.608,473.39 143.568,473.994C143.248,478.799 143.045,478.935 144.577,481.601C144.879,482.126 144.698,482.796 144.173,483.097C143.649,483.398 142.979,483.217 142.678,482.693C140.893,479.587 141.01,479.446 141.382,473.848Z"/>
        </g>
        <g transform="matrix(4.166667,0,0,4.166667,0,-660.754167)">
            <path d="M149.51,496.147C149.769,495.601 150.422,495.367 150.969,495.626C151.515,495.884 151.749,496.538 151.491,497.084C149.791,500.678 149.87,500.69 148.239,504.307C147.99,504.859 147.341,505.104 146.79,504.856C146.239,504.607 145.993,503.958 146.242,503.407C147.881,499.771 147.802,499.76 149.51,496.147Z"/>
        </g>
    </g>
</svg>
